# xmcd
#
# Track frame offsets:
#	150
#	18830
#	41216
#	60212
#
# Disc length: 988 seconds
#
# Revision: 0
# Processed by: cddbd v1.5.1PL0 Copyright (c) Steve Scherf et al.
# Submitted via: audiograbber 1.81.02
#
DISCID=2603da04
DTITLE=Shaun Groves - Welcome Home EP (www.gerth.de)
DYEAR=2004
DGENRE=Folk
TTITLE0=Welcome Home
TTITLE1=After The Music Fades
TTITLE2=Twilight
TTITLE3=See You
EXTD=
EXTT0=
EXTT1=
EXTT2=
EXTT3=
PLAYORDER=
